<?xml version="1.0" encoding="UTF-8" standalone="no"?>
<svg
   xmlns:dc="http://purl.org/dc/elements/1.1/"
   xmlns:cc="http://creativecommons.org/ns#"
   xmlns:rdf="http://www.w3.org/1999/02/22-rdf-syntax-ns#"
   xmlns:svg="http://www.w3.org/2000/svg"
   xmlns="http://www.w3.org/2000/svg"
   xmlns:sodipodi="http://sodipodi.sourceforge.net/DTD/sodipodi-0.dtd"
   xmlns:inkscape="http://www.inkscape.org/namespaces/inkscape"
   sodipodi:docname="la-chouette-agence.svg"
   inkscape:version="1.0 (4035a4fb49, 2020-05-01)"
   id="svg8"
   version="1.1"
   viewBox="0 0 297 210"
   height="210mm"
   width="297mm">
  <defs
     id="defs2" />
  <sodipodi:namedview
     inkscape:window-maximized="1"
     inkscape:window-y="-12"
     inkscape:window-x="-12"
     inkscape:window-height="2050"
     inkscape:window-width="3840"
     showgrid="false"
     inkscape:document-rotation="0"
     inkscape:current-layer="layer1"
     inkscape:document-units="mm"
     inkscape:cy="457.85767"
     inkscape:cx="379.93499"
     inkscape:zoom="0.98994949"
     inkscape:pageshadow="2"
     inkscape:pageopacity="0.0"
     borderopacity="1.0"
     bordercolor="#666666"
     pagecolor="#ffffff"
     id="base" />
  <metadata
     id="metadata5">
    <rdf:RDF>
      <cc:Work
         rdf:about="">
        <dc:format>image/svg+xml</dc:format>
        <dc:type
           rdf:resource="http://purl.org/dc/dcmitype/StillImage" />
        <dc:title></dc:title>
      </cc:Work>
    </rdf:RDF>
  </metadata>
  <g
     id="layer1"
     inkscape:groupmode="layer"
     inkscape:label="Calque 1">
    <path
       id="path38"
       d="m 8.27626,123.97781 c 1.6010694,-0.19295 4.221003,-0.19295 5.822072,0 1.60107,0.19296 0.291103,0.35083 -2.911036,0.35083 -3.2021401,0 -4.5121064,-0.15787 -2.911036,-0.35083 z m 15.89635,0.006 c 1.378071,-0.19758 3.823341,-0.20083 5.433935,-0.007 1.610592,0.19367 0.483079,0.35532 -2.505585,0.35929 -2.988663,0.004 -4.306421,-0.15444 -2.92835,-0.35201 z M 6.6075317,113.37768 2.648256,108.38659 v -6.52616 c 0,-4.709951 -0.3240532,-6.836015 -1.1644145,-7.639549 -0.68686193,-0.656762 -1.16441445,-2.609911 -1.16441445,-4.762354 0,-2.892766 0.51417857,-4.260167 2.48110855,-6.598237 L 5.2816444,79.911022 2.648256,76.780741 c -3.38555409,-4.024374 -2.37275649,-4.024374 1.8899962,0 2.9695178,2.803458 3.8008984,3.130281 7.9628748,3.130281 4.31574,0 4.716504,0.175318 5.619327,2.458227 l 0.972155,2.458227 1.117932,-2.458227 c 1.031969,-2.269204 1.479604,-2.458227 5.821466,-2.458227 4.251772,0 5.00787,-0.300128 7.872124,-3.124782 1.742724,-1.71863 3.370214,-2.886766 3.616643,-2.595856 0.246431,0.290909 -0.759599,1.695344 -2.23562,3.120965 l -2.683677,2.592041 2.877746,3.395398 c 3.396135,4.007037 3.936871,8.64619 1.325192,11.369276 -1.275981,1.330411 -1.552552,2.754618 -1.552552,7.994866 v 6.3761 l -4.099862,4.66487 -4.099861,4.66487 h -8.242667 -8.242665 z m 22.7069763,0.65527 c 2.78943,-3.29119 2.906454,-3.6719 2.680442,-8.72007 l -0.236331,-5.27862 -4.814672,-0.265158 -4.814672,-0.26516 -1.510748,3.392718 -1.51075,3.39272 -1.38705,-3.35115 C 16.334379,99.588772 16.331202,99.587082 11.431659,99.587082 H 6.5296378 v 6.167908 c 0,5.94086 0.1010137,6.2701 2.7439782,8.94366 2.646775,2.67742 2.998689,2.77575 9.934049,2.77575 h 7.19007 z M 5.063116,103.86441 c 0.1227791,-2.32053 -0.021013,-4.500548 -0.3195363,-4.844478 -0.298524,-0.34394 -0.542771,1.722368 -0.542771,4.591798 0,6.14183 0.5423046,6.30074 0.8623073,0.25268 z m 29.41247,-0.25268 c 0,-2.70546 -0.349325,-4.919018 -0.776276,-4.919018 -0.426952,0 -0.776277,2.213558 -0.776277,4.919018 0,2.70545 0.349325,4.91901 0.776277,4.91901 0.426951,0 0.776276,-2.21356 0.776276,-4.91901 z m -13.972975,-3.13029 c 0.600294,-1.292288 0.579512,-2.329909 -0.07488,-3.738644 -0.881523,-1.897709 -0.934673,-1.904383 -1.985133,-0.249255 -0.593647,0.935364 -0.896988,2.248211 -0.674091,2.917431 0.222896,0.669218 0.405267,1.586318 0.405267,2.037978 0,1.47654 1.478929,0.86212 2.328828,-0.96751 z m -3.456742,-4.553149 c 1.148764,-2.559402 1.14132,-2.891047 -0.100376,-4.471831 -1.725595,-2.196822 -2.65309,-2.168393 -2.65309,0.08132 0,1.490611 -0.517518,1.788733 -3.105105,1.788733 H 8.0821906 V 89.74905 c 0,-2.583725 0.323449,-3.577465 1.1644146,-3.577465 1.7028068,0 1.4292918,-1.190237 -0.8372631,-3.643474 l -2.0016768,-2.166542 -2.655981,3.339057 c -3.53256864,4.44109 -3.47990334,7.236791 0.2185299,11.600503 2.6710653,3.151541 3.1915981,3.391583 7.3546908,3.391583 4.222128,0 4.551646,-0.159226 5.720964,-2.764421 z m 17.198692,-0.09412 c 3.541141,-3.954329 3.554125,-8.208922 0.03695,-12.109902 l -2.522897,-2.79821 -2.13476,2.132683 c -2.542254,2.53978 -2.649438,3.112846 -0.582207,3.112846 1.293794,0 1.552552,0.596245 1.552552,3.577465 v 3.577465 H 27.10096 c -3.059471,0 -3.493243,-0.239328 -3.493243,-1.927349 0,-1.870696 -0.04563,-1.879766 -1.552552,-0.308567 -1.868923,1.948645 -1.933377,3.000232 -0.344121,5.614378 1.006115,1.654944 1.942178,1.987732 5.591047,1.987732 3.877887,0 4.677423,-0.329205 6.94247,-2.858541 z M 13.516125,89.668197 c 0,-1.932492 -1.697743,-3.07263 -3.432987,-2.305459 -1.4454259,0.639039 -0.6987947,3.97103 0.989755,4.416974 1.802753,0.476105 2.443232,-0.07742 2.443232,-2.111515 z m 10.792862,-2.822598 c 2.389489,-2.5807 4.460968,-4.995489 4.603285,-5.366197 0.142317,-0.370707 -1.27349,-0.674014 -3.146238,-0.674014 -3.229331,0 -3.486158,0.193069 -4.978189,3.742329 l -1.573193,3.742328 -1.490779,-3.518737 c -1.34617,-3.177407 -1.810812,-3.545414 -4.789956,-3.793752 -1.814545,-0.151259 -3.3039238,0.04998 -3.3097292,0.447183 -0.013441,0.919427 8.7016292,10.031572 9.6390032,10.078176 0.385699,0.01918 2.656307,-2.076615 5.045796,-4.657316 z m 4.732665,2.456268 c 0,-1.788732 -0.388138,-2.235915 -1.940692,-2.235915 -1.552552,0 -1.94069,0.447183 -1.94069,2.235915 0,1.788732 0.388138,2.235915 1.94069,2.235915 1.552554,0 1.940692,-0.447183 1.940692,-2.235915 z M 223.11744,113.319 c -2.12339,-2.05852 -2.29588,-2.53414 -1.32478,-3.65296 0.97109,-1.11882 1.37767,-0.98535 3.12268,1.02512 2.29589,2.64515 7.43834,3.22564 9.02781,1.01909 1.378,-1.91296 0.69568,-5.34719 -1.12895,-5.68225 -0.8539,-0.1568 -2.07654,-0.52051 -2.71697,-0.80826 -0.64043,-0.28774 -2.14265,-0.43295 -3.33827,-0.32269 -2.91563,0.26889 -4.42449,-1.35893 -4.42449,-4.7733 0,-5.366825 4.94099,-10.140068 9.34329,-9.026073 1.94969,0.493367 2.30941,0.265037 2.74699,-1.743622 0.28169,-1.293111 0.11461,-2.851201 -0.37927,-3.53682 -0.67903,-0.942659 -0.59481,-1.352798 0.36495,-1.777118 1.68304,-0.744087 1.66424,-0.751794 2.21755,0.909468 0.26766,0.803605 -0.20908,2.819651 -1.05941,4.480104 -1.14849,2.242649 -1.36748,3.560176 -0.85161,5.12345 0.51398,1.557513 0.30653,2.839401 -0.79821,4.932353 -1.84223,3.490128 -1.84404,3.679048 -0.0352,3.679048 4.03011,0 3.80197,5.57558 -0.40215,9.82838 -3.44815,3.48808 -6.98746,3.59943 -10.36397,0.32608 z m 7.8071,-11.08029 c 3.10282,-1.9132 1.09042,-9.806562 -2.50018,-9.806562 -1.67262,0 -4.53733,3.029536 -4.53733,4.798401 0,1.810543 3.04143,5.933991 4.37689,5.933991 0.63751,0 1.83478,-0.41663 2.66062,-0.92583 z m -181.213929,5.57967 c -0.204306,-0.38086 -0.454175,-6.11151 -0.555264,-12.734773 -0.150783,-9.878972 0.01327,-12.042303 0.913189,-12.042303 0.87624,0 1.140671,2.288411 1.31405,11.371925 l 0.21706,11.371921 1.85142,-0.97188 c 2.440631,-1.2812 7.018694,0.77484 5.724809,2.57104 -1.102919,1.5311 -2.168211,1.44458 -3.853881,-0.313 -1.291302,-1.34638 -1.548441,-1.34715 -3.319819,-0.01 -1.056055,0.79721 -2.087259,1.13787 -2.291564,0.75701 z m 12.842354,-1.53419 c -1.793826,-2.62739 -1.477488,-4.87424 1.075263,-7.63724 1.484013,-1.606241 2.438968,-1.894958 4.972681,-1.503418 3.488883,0.539145 3.93278,-0.319572 1.896572,-3.668903 -1.53614,-2.526776 -4.28684,-2.2665 -5.342584,0.505524 -0.990229,2.600007 -2.733362,3.37158 -2.733362,1.209885 0,-3.468209 5.909105,-5.752517 9.366348,-3.620788 1.229684,0.758219 1.50152,1.902282 1.50152,6.319359 0,2.966441 0.341984,6.129741 0.759965,7.029551 1.064037,2.29062 -1.053747,4.44708 -2.1503,2.18957 -0.688577,-1.41759 -0.864788,-1.421 -2.564219,-0.0496 -2.599954,2.09811 -5.008694,1.82322 -6.781884,-0.77395 z m 7.458606,-0.93445 c 2.665868,-2.1513 2.255006,-5.27524 -0.837625,-6.368778 -4.981254,-1.761358 -7.896544,2.045078 -4.691407,6.125478 1.572549,2.00199 3.257793,2.07615 5.529032,0.2433 z m 17.635226,1.02211 c -2.587422,-2.98103 -3.095945,-6.02096 -1.574319,-9.411096 1.196272,-2.665246 5.266639,-6.30671 7.057671,-6.313995 1.776765,-0.0072 3.698149,2.426051 3.16935,4.013713 -0.49236,1.47827 -0.631221,1.487556 -1.933875,0.129332 -1.774327,-1.850013 -4.306245,-1.874912 -5.883382,-0.05786 -1.642392,1.892235 -1.531408,4.702658 0.32418,8.209006 1.772122,3.34864 4.687156,3.8883 7.322009,1.35553 0.887525,-0.85314 0.58768,-0.24944 -0.666316,1.34155 -2.737089,3.47264 -5.234579,3.70714 -7.815318,0.73382 z m 13.283463,0.74419 c -0.25915,-0.77808 -0.47119,-6.57076 -0.47119,-12.87262 0,-9.359777 0.21324,-11.552194 1.16442,-11.972725 0.96107,-0.424905 1.16441,0.495454 1.16441,5.270509 0,6.102383 0.25383,6.52193 2.67128,4.415318 1.82201,-1.587742 5.21018,-1.71299 6.4888,-0.239866 0.51234,0.590281 0.93152,3.180102 0.93152,5.755156 0,2.575058 0.3304,5.683098 0.73421,6.906778 0.52617,1.59446 0.45094,2.4957 -0.2655,3.18075 -1.57689,1.50778 -2.02126,0.20096 -2.02126,-5.94421 0,-8.819265 -2.03914,-11.20093 -6.62565,-7.738571 -1.58195,1.194199 -1.91134,2.162499 -1.90151,5.589783 0.006,2.279958 0.33588,4.735578 0.73188,5.456938 0.45642,0.83143 0.41728,1.73178 -0.10694,2.45951 -1.10544,1.53459 -1.92363,1.4471 -2.49447,-0.26675 z m 17.91655,-1.09375 c -3.04764,-3.66496 -2.92189,-8.911953 0.30262,-12.626978 2.88665,-3.325783 5.96836,-3.600827 8.28647,-0.739572 3.46495,4.276832 2.73186,9.8667 -1.83702,14.0073 -2.75559,2.49728 -4.26144,2.35438 -6.75207,-0.64075 z m 7.19915,-1.23766 c 2.12597,-2.6291 1.99349,-5.749908 -0.3974,-9.361371 -2.19765,-3.319586 -3.79064,-3.726466 -5.91551,-1.510945 -2.24318,2.338858 -1.79814,6.481196 1.06151,9.880426 2.93507,3.48891 3.19287,3.5376 5.2514,0.99189 z m 8.23659,2.34068 c -0.8722,-1.00488 -1.21986,-3.15646 -1.21986,-7.549338 0,-3.597308 -0.36308,-6.402422 -0.87596,-6.767623 -0.59833,-0.426042 -0.47336,-0.88331 0.39428,-1.442737 2.19154,-1.413019 2.81051,0.07439 2.81051,6.753826 0,6.855862 0.71983,8.622572 3.51319,8.622572 2.95237,0 5.02585,-3.59958 5.02585,-8.724933 0,-2.521749 -0.39418,-4.865676 -0.87597,-5.208728 -0.59833,-0.426042 -0.47335,-0.88331 0.39429,-1.442737 2.24109,-1.444969 2.87011,0.129335 2.73495,6.845108 -0.0722,3.59019 0.086,6.93285 0.35168,7.42812 0.26569,0.49527 -0.0749,1.43398 -0.75681,2.08603 -1.04131,0.99567 -1.38637,0.9547 -2.15467,-0.25584 -0.79442,-1.25171 -1.16642,-1.28086 -2.82703,-0.22153 -2.56163,1.63412 -5.03023,1.58781 -6.51445,-0.12219 z m 16.89304,-0.89848 c -1.73735,-2.00165 -1.94643,-2.84854 -1.59358,-6.455148 0.31109,-3.179937 0.97173,-4.733478 2.82352,-6.639745 2.67123,-2.749823 4.47554,-3.099912 6.62852,-1.286127 2.26831,1.910949 0.99393,5.372011 -3.06613,8.32723 -1.92255,1.39937 -3.49617,2.82334 -3.49693,3.16438 -0.002,0.89493 3.27152,3.40459 4.44086,3.40459 0.54543,0 1.69033,-0.80493 2.54424,-1.78874 0.85389,-0.9838 1.55255,-1.41547 1.55255,-0.95927 0,1.46876 -4.03184,4.53674 -5.96205,4.53674 -1.0292,0 -2.77116,-1.03676 -3.871,-2.30391 z m 6.33584,-8.830118 c 1.08597,-1.950468 -0.4868,-4.51738 -2.76784,-4.51738 -2.3971,0 -4.25615,3.719554 -3.52851,7.05979 l 0.53678,2.463998 2.49363,-1.80965 c 1.3715,-0.995308 2.84116,-2.433853 3.26594,-3.196758 z m 8.9714,9.431968 c -0.44909,-0.9668 -0.81654,-4.61569 -0.81654,-8.108638 0,-6.073684 -0.0677,-6.309052 -1.55255,-5.393527 -1.08377,0.668249 -1.55255,0.671961 -1.55255,0.0123 0,-0.519754 0.8932,-1.413885 1.98488,-1.986957 1.65934,-0.871057 1.94582,-1.550821 1.74663,-4.144584 -0.14561,-1.896061 0.13909,-3.251423 0.73208,-3.485237 0.67207,-0.264995 0.97034,0.739985 0.97034,3.269392 0,3.344688 0.17131,3.651995 2.03574,3.651995 1.72154,0 1.8866,0.207063 1.06937,1.341549 -0.53151,0.737852 -1.44759,1.341549 -2.03574,1.341549 -0.80055,-4e-6 -1.06937,1.48753 -1.06937,5.91764 0,5.829878 0.0288,5.911298 1.9407,5.490218 2.48143,-0.54652 2.44024,-0.31273 -0.34788,1.9746 -2.26329,1.85676 -2.29759,1.85809 -3.10511,0.1197 z m 10.52253,0.28736 c -0.25916,-0.77808 -0.4712,-4.13196 -0.4712,-7.453048 0,-3.321096 -0.22059,-6.292505 -0.4902,-6.603133 -0.26961,-0.310626 -1.23025,-0.152185 -2.13476,0.352093 -1.30282,0.726348 -1.21251,0.461391 0.43469,-1.275094 1.28484,-1.354508 2.17458,-3.339894 2.32883,-5.196575 0.33718,-4.059084 1.74366,-3.818649 2.04307,0.34926 0.18875,2.62743 0.56705,3.353873 1.74662,3.353873 1.92778,0 1.9655,1.817655 0.0496,2.394863 -1.03068,0.310529 -1.58743,1.543512 -1.90596,4.220951 -0.62096,5.2196 0.0869,7.95388 1.9163,7.40269 1.91833,-0.57796 1.82426,0.0879 -0.30098,2.13056 -2.15495,2.07121 -2.6185,2.11785 -3.21611,0.32356 z m 9.19698,-0.78056 c -2.97385,-3.42625 -2.66593,-8.734168 0.73393,-12.651219 2.82657,-3.256554 4.74989,-3.759517 7.03021,-1.838451 2.26828,1.910913 0.99393,5.371999 -3.06601,8.32723 -3.83919,2.79454 -3.98905,3.68135 -0.95513,5.65219 1.8861,1.22522 2.17184,1.16636 4.01321,-0.82668 1.09039,-1.18019 1.98253,-1.7024 1.98253,-1.16046 0,1.59638 -3.93385,4.69265 -5.96205,4.69265 -1.02921,0 -2.72872,-0.98787 -3.77669,-2.19526 z m 6.03117,-8.340029 c 0.59234,-0.816047 0.57306,-1.795959 -0.0672,-3.414943 -1.88686,-4.771172 -7.20182,-0.07204 -6.02558,5.327404 l 0.52997,2.432798 2.36604,-1.60041 c 1.30132,-0.880218 2.73986,-2.115405 3.19677,-2.744849 z m 15.08389,8.899729 c -1.84558,-2.34957 -1.58315,-5.77894 0.62512,-8.169098 1.55971,-1.68816 2.4848,-1.978307 5.0458,-1.58255 2.62923,0.406303 3.13594,0.231733 3.13594,-1.080408 0,-2.114781 -2.65794,-4.754071 -4.40583,-4.374919 -0.77893,0.168965 -1.75819,1.202693 -2.17612,2.297173 -1.01085,2.647183 -2.73337,3.355992 -2.73337,1.124767 0,-1.967929 3.58672,-4.466729 6.41143,-4.466729 3.6147,0 4.65197,1.886764 5.21035,9.477394 0.53842,7.31926 -0.21716,9.80188 -2.10005,6.90021 -0.88984,-1.37132 -1.05987,-1.37013 -2.38995,0.0167 -1.88591,1.96635 -5.01979,1.89891 -6.62332,-0.14252 z m 7.38725,-1.63334 c 2.32761,-2.4269 1.8166,-5.23428 -1.1433,-6.280878 -3.46552,-1.2254 -5.97614,-0.0649 -5.97614,2.762498 0,2.26463 2.50238,4.99855 4.5752,4.99855 0.61855,0 1.76345,-0.66608 2.54424,-1.48017 z m 25.61949,1.19893 c -1.19092,-1.46051 -1.68787,-3.19846 -1.68787,-5.90282 0,-3.166433 0.4589,-4.36155 2.63934,-6.873689 2.82657,-3.256554 4.74989,-3.759517 7.03022,-1.838451 2.19432,1.84862 0.9891,5.106633 -3.02915,8.18845 -3.85481,2.95647 -4.00507,3.83367 -0.992,5.79097 1.88611,1.22522 2.17184,1.16636 4.01321,-0.82668 1.09039,-1.18019 1.98253,-1.7024 1.98253,-1.16046 0,1.67245 -3.9772,4.69265 -6.17958,4.69265 -1.17974,0 -2.82343,-0.90089 -3.7767,-2.06997 z m 6.59234,-9.175327 c 0.55886,-1.677911 -1.15429,-4.853295 -2.61839,-4.853295 -2.13961,0 -4.10926,2.781474 -4.10926,5.802935 0,1.563429 0.20386,3.077487 0.45303,3.364567 0.60439,0.69632 5.79429,-2.872078 6.27462,-4.314207 z m 7.44353,10.157127 c -1.30524,-1.84701 -1.59018,-15.784407 -0.33407,-16.339752 1.52887,-0.67593 1.68841,-0.592574 1.68841,0.882147 0,1.668312 -0.13254,1.682548 3.34337,-0.359153 3.14758,-1.84884 5.63468,-1.590905 6.69623,0.694463 0.37132,0.799383 0.79174,4.673141 0.93427,8.608345 0.21247,5.86603 0.0515,7.15494 -0.89377,7.15494 -0.89577,0 -1.23949,-1.65354 -1.54106,-7.41351 -0.27446,-5.242407 -0.72915,-7.661169 -1.55255,-8.25919 -1.55958,-1.132686 -1.56244,-1.132078 -4.55375,0.969023 -2.56305,1.800281 -2.60608,1.932896 -2.24874,6.927997 0.20038,2.80091 0.50294,5.64597 0.67237,6.32233 0.41468,1.65545 -1.19653,2.24751 -2.21071,0.81236 z m 17.33701,-1.66355 c -1.13203,-1.55001 -2.0097,-3.86353 -2.0097,-5.29758 0,-3.106992 3.00266,-7.412934 6.24989,-8.962589 2.15831,-1.03 2.56716,-0.952637 4.06098,0.768424 1.24913,1.439161 1.44028,2.168081 0.77079,2.939413 -0.66949,0.771331 -1.20513,0.662903 -2.16002,-0.437246 -1.87912,-2.164969 -4.7989,-1.824375 -6.25116,0.729197 -3.01856,5.307741 3.89086,13.374161 7.69836,8.987451 2.22582,-2.56441 2.32826,-1.32497 0.11089,1.34155 -2.97359,3.57593 -5.82513,3.55282 -8.47003,-0.0686 z m 14.31185,0.98574 c -2.11957,-2.442 -2.65952,-5.61813 -1.58991,-9.352115 2.10262,-7.340173 10.10921,-9.371061 10.10921,-2.564221 0,1.452531 -1.17208,3.028677 -3.98144,5.354046 l -3.98145,3.29551 1.73862,1.62202 c 2.24743,2.0967 3.20158,2.04388 5.92551,-0.32804 l 2.23945,-1.95005 -2.27999,2.84442 c -2.67177,3.33317 -5.85832,3.75327 -8.18,1.07843 z m 5.7164,-9.190006 c 1.17103,-2.145494 -0.29807,-4.695422 -2.70518,-4.695422 -2.26115,0 -3.86389,3.413076 -3.26395,6.95062 l 0.42039,2.478788 2.34724,-1.58442 c 1.29099,-0.871438 2.73166,-2.288739 3.2015,-3.149566 z"
       style="fill:#000000;stroke-width:1" />
  </g>
</svg>
