<?xml version="1.0" encoding="UTF-8" standalone="no"?>
<svg
   xmlns:dc="http://purl.org/dc/elements/1.1/"
   xmlns:cc="http://creativecommons.org/ns#"
   xmlns:rdf="http://www.w3.org/1999/02/22-rdf-syntax-ns#"
   xmlns:svg="http://www.w3.org/2000/svg"
   xmlns="http://www.w3.org/2000/svg"
   xmlns:xlink="http://www.w3.org/1999/xlink"
   xmlns:sodipodi="http://sodipodi.sourceforge.net/DTD/sodipodi-0.dtd"
   xmlns:inkscape="http://www.inkscape.org/namespaces/inkscape"
   width="210mm"
   height="297mm"
   viewBox="0 0 210 297"
   version="1.1"
   id="svg8"
   inkscape:version="1.0 (4035a4fb49, 2020-05-01)"
   sodipodi:docname="logo.svg">
  <defs
     id="defs2">
    <linearGradient
       inkscape:collect="always"
       id="linearGradient863">
      <stop
         style="stop-color:#ad3744;stop-opacity:1;"
         offset="0"
         id="stop859" />
      <stop
         style="stop-color:#ecbe4d;stop-opacity:1"
         offset="1"
         id="stop861" />
    </linearGradient>
    <linearGradient
       inkscape:collect="always"
       xlink:href="#linearGradient863"
       id="linearGradient865"
       x1="48.510761"
       y1="101.29514"
       x2="111.31644"
       y2="152.34361"
       gradientUnits="userSpaceOnUse" />
    <linearGradient
       gradientTransform="translate(-2.9066157e-7)"
       inkscape:collect="always"
       xlink:href="#linearGradient863"
       id="linearGradient907"
       gradientUnits="userSpaceOnUse"
       x1="82.453995"
       y1="126.15121"
       x2="127.08534"
       y2="164.63802" />
  </defs>
  <sodipodi:namedview
     id="base"
     pagecolor="#ffffff"
     bordercolor="#666666"
     borderopacity="1.0"
     inkscape:pageopacity="0.0"
     inkscape:pageshadow="2"
     inkscape:zoom="0.98994949"
     inkscape:cx="695.70311"
     inkscape:cy="526.86714"
     inkscape:document-units="mm"
     inkscape:current-layer="layer1"
     inkscape:document-rotation="0"
     showgrid="false"
     inkscape:window-width="3840"
     inkscape:window-height="2050"
     inkscape:window-x="-12"
     inkscape:window-y="-12"
     inkscape:window-maximized="1" />
  <metadata
     id="metadata5">
    <rdf:RDF>
      <cc:Work
         rdf:about="">
        <dc:format>image/svg+xml</dc:format>
        <dc:type
           rdf:resource="http://purl.org/dc/dcmitype/StillImage" />
        <dc:title />
      </cc:Work>
    </rdf:RDF>
  </metadata>
  <g
     inkscape:label="Calque 1"
     inkscape:groupmode="layer"
     id="layer1">
    <circle
       r="80.982666"
       inkscape:transform-center-y="-1.3363476"
       inkscape:transform-center-x="4.0090429"
       style="fill:url(#linearGradient907);fill-opacity:1;stroke:#ecbe4d;stroke-width:0.264583;stroke-opacity:0.762735"
       id="path34"
       cy="144.05826"
       cx="100.22607" />
    <path
       style="fill:#ecbe4d;fill-opacity:0;stroke:#ecbe4d;stroke-width:0.264583;stroke-opacity:0.762735"
       id="path871"
       sodipodi:type="arc"
       sodipodi:cx="71.628235"
       sodipodi:cy="168.64706"
       sodipodi:rx="3.4745038"
       sodipodi:ry="1.3363476"
       sodipodi:start="0"
       sodipodi:end="0.0080212191"
       sodipodi:arc-type="slice"
       d="m 75.102739,168.64706 a 3.4745038,1.3363476 0 0 1 -1.12e-4,0.0107 l -3.474392,-0.0107 z" />
    <path
       id="path24"
       d="M 85.945109,252.33556 C 63.669669,247.82035 48.289709,239.34233 31.657069,222.40989 20.977459,211.53777 18.042439,207.48663 12.560229,196.05088 3.6414294,177.44641 1.3506494,167.56353 1.3506494,147.69033 c 0,-19.87322 2.29078,-29.75611 11.2095796,-48.360568 5.45906,-11.387469 8.46232,-15.544765 19.09684,-26.435009 10.6345,-10.890257 14.69419,-13.965736 25.81423,-19.556078 18.16756,-9.1333 27.81834,-11.47917 47.224871,-11.47917 19.40651,0 29.05731,2.34587 47.22487,11.47917 11.12004,5.590342 15.17972,8.665821 25.81423,19.556078 10.63451,10.890244 13.63778,15.04754 19.09681,26.435009 8.91885,18.604458 11.20961,28.487348 11.20961,48.360568 0,19.8732 -2.29076,29.75608 -11.20961,48.36055 -5.45903,11.38745 -8.4623,15.54476 -19.09681,26.43501 -10.6416,10.89753 -14.68675,13.96094 -25.81423,19.54922 -7.25735,3.64468 -16.94538,7.61261 -21.529,8.81763 -11.97759,3.14886 -32.800411,3.84355 -44.446931,1.48282 z m 11.80624,-47.75046 c 0,-0.85342 -5.55589,-1.42237 -13.88969,-1.42237 -8.33379,0 -13.88967,0.56895 -13.88967,1.42237 0,0.85342 5.55588,1.42236 13.88967,1.42236 8.3338,0 13.88969,-0.56894 13.88969,-1.42236 z m 41.669001,0 c 0,-0.85342 -5.55588,-1.42237 -13.88968,-1.42237 -8.33381,0 -13.88966,0.56895 -13.88966,1.42237 0,0.85342 5.55585,1.42236 13.88966,1.42236 8.3338,0 13.88968,-0.56894 13.88968,-1.42236 z m -2.46142,-23.79133 10.79522,-10.98998 v -14.05173 c 0,-12.91338 0.28132,-14.39412 3.47241,-18.27772 2.71863,-3.30863 3.47243,-5.81357 3.47243,-11.53956 0,-6.87698 -0.41851,-7.74751 -7.01031,-14.58277 l -7.01033,-7.26919 6.31583,-5.961741 c 3.4737,-3.278957 6.31583,-6.268595 6.31583,-6.643632 0,-2.01527 -3.45085,0.01426 -9.72276,5.718787 l -7.03756,6.400636 h -12.93788 -12.93789 l -2.50534,5.68949 c -1.37795,3.1292 -2.87919,5.68774 -3.33612,5.68562 -0.45692,-0.001 -2.08868,-2.40236 -3.62612,-5.33389 l -2.795311,-5.33001 -12.19068,0.52026 -12.19066,0.52027 -8.62644,-7.523148 c -8.43461,-7.355864 -8.49517,-7.382038 -2.72333,-1.177624 3.24671,3.490042 5.90311,6.988132 5.90311,7.773512 0,0.78539 -2.81266,4.25477 -6.25035,7.70973 -5.93806,5.96791 -6.25035,6.681 -6.25035,14.2719 0,6.72119 0.56133,8.53016 3.53454,11.39052 3.38159,3.25323 3.52458,4.03981 3.30407,18.17614 l -0.23048,14.77574 10.2036,10.51921 10.20359,10.51918 h 21.533031 21.53301 z m -59.052591,1.34015 -6.54537,-6.80512 v -13.10805 -13.10806 h 12.95775 12.95776 l 3.252791,7.11186 c 1.78903,3.91151 3.66412,7.11183 4.1669,7.11183 0.50276,0 2.38813,-3.22277 4.18971,-7.16171 l 3.27558,-7.16169 12.58769,0.40547 12.58775,0.40542 0.40483,12.69261 0.40483,12.69257 -6.60298,6.86499 -6.60297,6.86501 H 104.69617 84.451699 Z m -11.75402,-11.89169 c -1.1165,-1.1481 -1.73619,-6.10784 -1.73619,-13.89578 0,-10.91556 0.21149,-11.89389 2.14347,-9.91546 1.66023,1.70019 2.05164,4.83279 1.7362,13.8958 -0.32597,9.36529 -0.75379,11.34442 -2.14348,9.91544 z m 74.948071,-11.41407 c 0.22185,-6.39104 1.02843,-11.83326 1.79237,-12.09382 0.87622,-0.29888 1.22311,3.99083 0.93968,11.62006 -0.24712,6.65161 -1.05367,12.09384 -1.79239,12.09384 -0.78812,0 -1.17639,-4.80141 -0.93966,-11.62008 z m -39.48781,-6.92078 c -2.233551,-4.01929 -2.239421,-4.62061 -0.09,-9.23642 1.26452,-2.71548 2.69262,-4.93721 3.17357,-4.93721 0.48095,0 1.841,2.08021 3.02233,4.62269 1.93618,4.1671 1.93671,5.07832 0.004,9.2454 -1.17844,2.5425 -2.49799,4.61867 -2.93233,4.61369 -0.43436,-0.004 -1.86485,-1.94362 -3.17883,-4.30815 z M 63.374399,139.22565 c -5.10119,-5.83548 -5.9031,-7.62603 -5.9031,-13.18063 0,-5.74868 0.67967,-7.12379 6.4331,-13.0156 3.53821,-3.62328 6.81965,-6.58607 7.29208,-6.58396 0.47244,0.001 3.67162,2.5351 7.10932,5.62883 l 6.25035,5.62499 -4.51415,0.0606 -4.51413,0.0606 v 8.53424 8.53421 h 8.33379 8.3338 v -4.2671 c 0,-5.35633 1.23259,-5.36338 6.21711,-0.0356 l 3.958871,4.23154 -2.521011,5.72503 -2.52099,5.72503 -14.02597,-0.14472 -14.02595,-0.14472 z m 47.014821,1.9827 c -3.6888,-6.40243 -3.68412,-6.45504 0.98053,-11.03154 4.96242,-4.8686 5.82711,-4.80255 5.82711,0.44507 v 4.26712 h 8.33381 8.3338 v -8.53423 c 0,-8.1549 -0.15437,-8.53422 -3.47243,-8.53422 -4.653,0 -4.24906,-1.24223 2.27197,-6.98682 l 5.50923,-4.85328 6.87391,6.93337 c 5.92452,5.97576 6.87389,7.70538 6.87389,12.52295 0,4.58054 -1.14776,6.96538 -6.35775,13.21039 l -6.35774,7.62081 H 126.25494 113.30437 Z M 78.305799,126.26892 v -5.77534 l 5.20862,0.44146 c 4.92576,0.41748 5.23204,0.73112 5.63971,5.77535 l 0.43108,5.33388 h -5.6397 -5.63971 z m 14.58414,-4.31628 c -18.85171,-16.9391 -18.2934,-15.51102 -6.06414,-15.51102 h 10.52632 l 3.567051,8.07371 3.56704,8.07374 3.86675,-8.07374 3.86673,-8.07371 h 9.54917 c 5.25203,0 9.34081,0.57695 9.08617,1.28211 -0.46328,1.28294 -25.59371,24.36805 -26.41694,24.26692 -0.24002,-0.0293 -5.436681,-4.54659 -11.548151,-10.03801 z m 27.348261,4.75775 c 0.40766,-5.04423 0.71394,-5.35787 5.6397,-5.77535 l 5.20862,-0.44146 v 5.77534 5.77535 h -5.6397 -5.63971 z"
       style="fill:#000000;stroke-width:1" />
  </g>
</svg>
